<svg xmlns="http://www.w3.org/2000/svg" viewBox="0 0 89 61" width="89" height="61">
	<style>
		tspan { white-space:pre }
		.shp0 { fill: #f5c506 } 
	</style>
	<g id="mid_bar">
		<path id="Shape 2" class="shp0" d="M66.75 61L19.47 61C8.72 61 0 52.31 0 41.59C0 32.79 5.92 25.44 13.98 23.06C13.96 22.76 13.91 22.48 13.91 22.18C13.91 14.52 20.13 8.32 27.81 8.32C29.35 8.32 30.8 8.63 32.19 9.09C36.24 3.6 42.71 0 50.06 0C60.64 0 69.45 7.37 71.71 17.23C81.6 19.49 89 28.27 89 38.82C89 51.07 79.04 61 66.75 61ZM50.06 38.82L50.06 22.18L38.94 22.18L38.94 38.82L30.42 38.82L44.5 52.85L58.58 38.82L50.06 38.82Z" />
	</g>
</svg>